STARTFONT 2.1
COMMENT
COMMENT Converted from OpenType font "Font 90 Icons.ttf" by "otf2bdf 3.0".
COMMENT
FONT -FreeType-Font 90 Icons-Medium-R-Normal--32-230-100-100-P-120-ISO10646-1
SIZE 23 100 100
FONTBOUNDINGBOX 34 34 0 -7
STARTPROPERTIES 19
FOUNDRY "FreeType"
FAMILY_NAME "Font 90 Icons"
WEIGHT_NAME "Medium"
SLANT "R"
SETWIDTH_NAME "Normal"
ADD_STYLE_NAME ""
PIXEL_SIZE 32
POINT_SIZE 230
RESOLUTION_X 100
RESOLUTION_Y 100
SPACING "P"
AVERAGE_WIDTH 120
CHARSET_REGISTRY "ISO10646"
CHARSET_ENCODING "1"
FONT_ASCENT 26
FONT_DESCENT 6
COPYRIGHT "Typeface © (el-harrak.blogspot.com). <darrati10@gmail.com>. All Rights Reserved"
_OTF_FONTFILE "Font 90 Icons.ttf"
_OTF_PSNAME "Font 90 Icons"
ENDPROPERTIES
CHARS 242
STARTCHAR 0000
ENCODING 0
SWIDTH 0 0
DWIDTH 0 0
BBX 0 0 0 0
BITMAP
ENDCHAR
STARTCHAR 001D
ENCODING 29
SWIDTH 0 0
DWIDTH 0 0
BBX 0 0 0 0
BITMAP
ENDCHAR
STARTCHAR 0020
ENCODING 32
SWIDTH 250 0
DWIDTH 8 0
BBX 0 0 0 0
BITMAP
ENDCHAR
STARTCHAR 0021
ENCODING 33
SWIDTH 970 0
DWIDTH 31 0
BBX 31 31 0 -5
BITMAP
0003C000
003FF800
00FFE600
03FFF980
07FFFC40
0FFFFC20
1FFFFE10
1FFC7E18
3FFC3E08
7FFC7E04
7FFEFE04
7FFFFC04
7FFFFC02
FFFFF802
FFFFF002
FFFFC002
FFF80002
FFE00002
FFC00002
7F800002
7F800004
7F838004
3F03C00C
3F03C008
1F838010
0F800030
07800060
03C000C0
01E00300
00F80E00
001FF000
ENDCHAR
STARTCHAR 0022
ENCODING 34
SWIDTH 970 0
DWIDTH 31 0
BBX 31 25 0 -2
BITMAP
000FE000
001FF800
00101800
00101800
00101800
7FFFFFFC
7FFFFFFE
FFFFFFFE
FFFFFFFE
FFFFFFFE
FFFFFFFE
FFFFFFFE
FFFFFFFE
FFFFFFFE
FFFFFFFE
FFFFFFFE
FFFFFFFE
FFFFFFFE
FFFFFFFE
FFFFFFFE
FFFFFFFE
FFFFFFFE
FFFFFFFE
7FFFFFFE
7FFFFFFC
ENDCHAR
STARTCHAR 0023
ENCODING 35
SWIDTH 970 0
DWIDTH 31 0
BBX 29 32 1 -6
BITMAP
01FF0000
E3FFE000
F7FFFC20
F7FFFFE0
77FFFFE0
77FFFFE0
77FFFFE0
7BFFFFF0
7BFFFFF0
3BFFFFF0
3BFFFFF0
3BFFFFF0
3BFFFFF0
3DFFFFF8
3DFEFFF8
1DE00FF8
1D8003F8
1C0000F8
1E000000
1E000000
1E000000
0E000000
0E000000
0E000000
0F000000
0F000000
07000000
07000000
07000000
07000000
07800000
07800000
ENDCHAR
STARTCHAR 0024
ENCODING 36
SWIDTH 970 0
DWIDTH 31 0
BBX 31 31 0 -5
BITMAP
04000000
1F000000
3F800000
7FC00000
7FE00000
FFF00000
FFF80000
7FFC0000
7FFF0000
3FFF8000
1FFFC000
0FFFE000
07FFC000
03FF8000
01FF0000
00FE8000
007D8000
0078C000
00306000
00103000
00001800
00000C00
00000200
00000100
00000080
00000040
00000020
00000010
00000008
00000004
00000002
ENDCHAR
STARTCHAR 0025
ENCODING 37
SWIDTH 970 0
DWIDTH 31 0
BBX 29 33 1 -6
BITMAP
00020000
000F8000
000F8000
000F8000
003FF000
00FFFC00
03FFFE00
27FFFF70
FFC71FF8
FF870FF8
FF0707F8
7F870FF8
3FC21FE0
3FE23FF0
3DF77CF0
781FE0F0
780FC0F0
780FC0F0
783FF0F0
3FF77FF0
3FE31FE0
7F830FF0
FF0707F8
FF0707F8
FF870FF8
7FE7BFF8
07FFFF00
01FFFE00
00FFF800
003FE000
000F8000
000F8000
00070000
ENDCHAR
STARTCHAR 0026
ENCODING 38
SWIDTH 970 0
DWIDTH 31 0
BBX 31 31 0 -5
BITMAP
00038000
003FF800
00FC3E00
03C00780
070101C0
0E1FF0E0
1C7FFC70
18FFFE38
31FFFF18
33FFFF8C
63BFFFCC
67DFF7CC
47E7E7C6
CFF3CFE6
CFF99FE6
CFFC3FE6
CFFE7FE6
CFFEFFE6
C7FFFFE6
67FFFFC6
67FFFFCC
63FFFF8C
33FFFF98
31FFFF18
18FFFE30
0C3FF870
060FE0E0
038003C0
01E00F00
007FFE00
001FF000
ENDCHAR
STARTCHAR 0027
ENCODING 39
SWIDTH 970 0
DWIDTH 31 0
BBX 31 31 0 -6
BITMAP
003C0000
01FF8000
07FFE000
0FFFF000
1FFFF800
3FC1FC00
3F007E00
7E1C3E00
7C1C1F00
781C1F00
F81C1F00
F9FFCF00
F9FFCF00
F9FF8F00
F81C1F00
7C1C1F00
7C1C3F00
7E183E00
3F00FE00
1FE3FF00
1FFFFF80
07FFFFC0
03FFFFE0
00FFBFF0
00001FF8
00000FFC
000007FE
000003FE
000001FE
000000FC
0000007C
ENDCHAR
STARTCHAR 0028
ENCODING 40
SWIDTH 970 0
DWIDTH 31 0
BBX 31 31 0 -6
BITMAP
007E0000
01FFC000
07FFE000
0FFFF800
1FFFFC00
3F81FC00
3F007E00
7E003E00
7C001F00
78001F00
F8001F00
F9FFCF00
FBFFCF00
F8FF8F00
F8001F00
7C001F00
7C003F00
7E007E00
3F00FE00
1FE7FF00
0FFFFF80
07FFFFC0
03FFFFE0
00FF3FF0
00001FF8
00000FFC
000007FE
000003FE
000001FE
000000FE
0000007C
ENDCHAR
STARTCHAR 0029
ENCODING 41
SWIDTH 970 0
DWIDTH 31 0
BBX 31 23 0 -1
BITMAP
7FFFFFFC
FFFFFFFE
F000001E
F800003E
DC00007E
CE0000F6
C70001E6
C38003C6
C1C00786
C0E00F06
C0701E06
C0383C06
C03C7C06
C07EFE06
C0E7E706
C1C38386
C38001C6
C70000E6
CE000076
DC00003E
F800001E
E000000E
7FFFFFFE
ENDCHAR
STARTCHAR 002A
ENCODING 42
SWIDTH 970 0
DWIDTH 31 0
BBX 27 32 2 -6
BITMAP
001F0000
001F0000
001F0000
001F0000
001F0000
001F0000
001F0000
001F0000
079F3C00
07FFFC00
03FFF800
01FFF000
00FFE000
7F7FDFC0
BFBFBFA0
DFDF7F60
EFEEFEE0
F7F1FDE0
FBFFFBE0
FDFFF7E0
FEFFEFE0
FF7FDFE0
FFBFBFE0
FF5F5FE0
FEE6EFE0
FDFBF7E0
FBFFFBE0
FFFFFDE0
FFFFFEE0
FFFFFF60
FFFFFFA0
7FFFFFC0
ENDCHAR
STARTCHAR 002B
ENCODING 43
SWIDTH 970 0
DWIDTH 31 0
BBX 31 30 0 -5
BITMAP
FFFFFFFE
FFFFFFFE
FFFFFFFE
FFFFFFEE
F03FF80E
F07FFC1E
F03FFC1E
F01FF81E
F21FF05E
F63FF8DE
FF7FFDFE
FFFFFFFE
FFFFFFFE
FFFFFFFE
FFFFFFFE
FFFFFFFE
FFFFFFFE
FFFFFFFE
FFFFFDFE
FF3FF8FE
F61FF05E
F01FF01E
F03FF81E
F07FFC1E
F03FFC1E
F01FF80E
FFFFFFFE
FFFFFFFE
FFFFFFFE
FFFFFFFE
ENDCHAR
STARTCHAR 002C
ENCODING 44
SWIDTH 970 0
DWIDTH 31 0
BBX 31 31 0 -5
BITMAP
00000040
00000FE0
00007FF0
0000FFF8
0001FFFC
0003FF3E
0007FE1E
000FFE3E
001FFF7E
003FFFFC
007FFFFC
00FFFFFC
01FFFFFC
03BFFFFC
079FFFF8
0FCFFFF0
1CE7FFE0
3E73FFC0
7F39FF80
FF9CFF00
3FCE7E00
1FE73C00
0FF3F800
07F9F000
03FDE000
01FFC000
00FF8000
007F0000
003E0000
001C0000
00080000
ENDCHAR
STARTCHAR 002D
ENCODING 45
SWIDTH 970 0
DWIDTH 31 0
BBX 31 31 0 -5
BITMAP
00010000
003FF800
00FC7E00
03C00780
070001C0
0E0000E0
1E000870
1B001838
31801818
30C0381C
6070780C
6000F80C
603FF806
C03FF806
C03FF806
C03FF806
C03FF806
C03FF806
C03FF806
603FF80E
6000F80C
6000780C
30003A18
38001B18
180009B0
0C0000F0
070000E0
038003C0
01E00F00
007FFE00
001FF000
ENDCHAR
STARTCHAR 002E
ENCODING 46
SWIDTH 970 0
DWIDTH 31 0
BBX 26 33 3 -6
BITMAP
3FFFFF00
7FFFFF80
60000180
60000180
60000180
60000180
60000180
60000180
60000180
60000180
60000180
60000180
60000180
60000180
60000180
60000180
7FFFFF80
00000000
00000000
7FFFFF80
7FFFFF80
7FFF0380
7FFFFF80
7FFFFF80
7FFFFF80
000C0000
000C0000
000C0000
000C0000
00FFC000
00FFC000
FFFFFFC0
00FFC000
ENDCHAR
STARTCHAR 002F
ENCODING 47
SWIDTH 970 0
DWIDTH 31 0
BBX 31 32 0 -6
BITMAP
0807C010
180FF030
0C1FF060
0C3FF860
4E3FF8E2
C63FF8C6
663FF8CE
673FF8CC
673FF9CC
773FF9CC
733FF9CC
733FF9DC
733FF9DC
733FF9DC
733FF9DC
733FF9CC
773FF9CC
673FF9CC
673FF8CC
663FF8CE
C63FF8C6
CE1FF8E6
0C1FF060
0C07E060
1807C030
0807C010
0007C000
0007C000
0007C000
0007C000
0007C000
00038000
ENDCHAR
STARTCHAR 0030
ENCODING 48
SWIDTH 970 0
DWIDTH 31 0
BBX 31 31 0 -5
BITMAP
00038000
003FF800
00FFFE00
03FFFF80
07FFFFC0
0FFFFFE0
1F3FF9F0
1E1FF0F8
3C1FF078
3C0FE03C
7807E03C
7807C01C
7007C01E
F00FE01E
F00C701E
F018301E
FFF83FFE
FFFC7FFE
FFFFFFFE
7FFBFFFE
7FF83FFC
7FF01FFC
3FF01FFC
3FE00FF8
1FE007F0
0FC007F0
0FC007E0
03FEFFC0
01FFFF00
00FFFE00
001FF800
ENDCHAR
STARTCHAR 0031
ENCODING 49
SWIDTH 970 0
DWIDTH 31 0
BBX 30 33 1 -6
BITMAP
00078000
001FC000
001FC000
001FC000
005FC800
019FCC00
079FCF00
0F9FCF80
1F9FCFC0
3F9FCFE0
3F1FC3E0
7E1FC1F0
7C1FC1F0
F81FC0F8
F81FC0F8
F01FC078
F01FC078
F01FC07C
F00FC07C
F000007C
F0000078
F8000078
F80000F8
780000F8
7C0001F0
7E0003F0
3F0007E0
1FC00FC0
0FF07FC0
07FFFF80
03FFFE00
00FFFC00
003FE000
ENDCHAR
STARTCHAR 0032
ENCODING 50
SWIDTH 970 0
DWIDTH 31 0
BBX 29 33 1 -6
BITMAP
00020000
000F8000
000F8000
000F8000
000F8000
000F8000
000F8000
200F8070
FC0700F8
FE0703F8
FF0707F8
7F870FF8
3FC21FE0
0FE23F80
01F77C00
003FE000
000FC000
000FC000
003FF000
03F77E00
1FE31FC0
7F830FF0
FF0707F8
FE0703F8
FC0701F8
780780F8
000F8000
000F8000
000F8000
000F8000
000F8000
000F8000
00070000
ENDCHAR
STARTCHAR 0033
ENCODING 51
SWIDTH 970 0
DWIDTH 31 0
BBX 31 29 0 -4
BITMAP
00010000
00010000
00018000
00038000
0007C000
0007C000
0007E000
000FE000
000FF000
001FF000
03FFFF80
FFFFFFFE
7FFFFFFC
3FFFFFF8
1FFFFFF0
0FFFFFE0
03FFFFC0
01FFFF80
00FFFF00
00FFFE00
00FFFF00
01FFFF00
01FFFF00
01FFFF00
01FFFF00
01FC3F00
01F00F80
03C00780
03000180
ENDCHAR
STARTCHAR 0034
ENCODING 52
SWIDTH 970 0
DWIDTH 31 0
BBX 31 22 0 -1
BITMAP
3FFFFFFC
3FFFFFF8
DFFFFFF6
EFFFFFEE
F7FFFFDE
FBFFFFBE
FDFFFF7E
FEFFFEFE
FF7FFDFE
FFBFFBFE
FFDFF7FE
FFCFE7FE
FFB7DBFE
FF793DFE
FEFFFEFE
FDFFFF7E
FBFFFFBE
F7FFFFDE
EFFFFFEE
DFFFFFF6
3FFFFFF8
3FFFFFF8
ENDCHAR
STARTCHAR 0035
ENCODING 53
SWIDTH 970 0
DWIDTH 31 0
BBX 31 24 0 -3
BITMAP
00038F80
0006EF80
00193F80
00339F80
00CFE780
019FF380
073FFCC0
0CFFFE60
39FFFF18
67FFFFCC
C7FFFFC6
07FFFFC0
07FFFFC0
07F83FC0
07F83FC0
07F83FC0
07F83FC0
07F83FC0
07F83FC0
07F83FC0
07F83FC0
07F83FC0
07F83FC0
03F83F80
ENDCHAR
STARTCHAR 0036
ENCODING 54
SWIDTH 970 0
DWIDTH 31 0
BBX 31 32 0 -6
BITMAP
07000780
0F8007C0
0F8007C0
0F8007C0
07000380
00000000
3FF01FF0
7FF83FF0
FFF83FF8
FFF837D8
FFD87FD8
FFD87FFC
FFD86FEC
FFD87FEC
FFD8FFFE
FFD8DFFE
FFD8DFF6
FFD83FF0
1FC03FF8
1DC03FF8
1DC07FF8
1DC07FFC
1DC006C0
1DC006C0
1DC006C0
1DC006C0
1DC006C0
1DC006C0
1DC006C0
1DC006C0
1DC006C0
0DC006C0
ENDCHAR
STARTCHAR 0037
ENCODING 55
SWIDTH 970 0
DWIDTH 31 0
BBX 31 24 0 -2
BITMAP
007E0000
03FFC000
07C3E000
0F81F000
1F81F800
3F81FC00
3F81FE00
7FC3FE00
79FF8E00
E0FF0700
C07E0300
C07E0300
C07E0300
E0FF0700
71FF8F00
7FC3FE00
7F81FE00
3F81FC00
3F81FC00
1F81FC06
0FC3FC1E
07FFE7FC
01FF83E0
00180000
ENDCHAR
STARTCHAR 0038
ENCODING 56
SWIDTH 970 0
DWIDTH 31 0
BBX 24 33 4 -6
BITMAP
7FFFFC
FFFFFE
FFFFFF
C00007
C00007
C00007
C00007
C00007
C00007
FFFFFF
FFFFFF
FFFFFF
C3C387
C3C387
C3C387
C3C387
FFFFFF
FFFFFF
FFFFFF
C3C387
C3C387
C3C387
C3C387
FFFFFF
FFFFFF
FFFFFF
C3C387
C3C387
C3C387
C3C387
FFFFFF
FFFFFF
FFFFFE
ENDCHAR
STARTCHAR 0039
ENCODING 57
SWIDTH 970 0
DWIDTH 31 0
BBX 31 30 0 -5
BITMAP
C0000000
F0000000
78000000
38000000
1C7FFFFE
0C7FFFFC
0E7FFFFC
067FFFF8
073FFFF8
033FFFF8
033FFFF0
033FFFF0
03BFFFE0
01BFFFE0
019FFFC0
01800000
01800000
01800000
01C00000
01FFFFF0
01FFFFF8
00000000
00000000
006000C0
01F001F0
03F803F0
03F803F8
01F803F0
01F001F0
00400040
ENDCHAR
STARTCHAR 003A
ENCODING 58
SWIDTH 970 0
DWIDTH 31 0
BBX 31 30 0 -4
BITMAP
00003FC0
0000FFF0
0001FFF8
0001FF38
0003FE1C
0003FC1C
0007FC1E
0007FE3E
0007FFFE
0007FFFE
0007FFFE
0003FFFC
000BFFFC
0019FFF8
003DFFF8
007C7FE0
00FF3FC0
01FF8000
03FFE000
07FE0000
0FFE0000
1FF80000
3FF80000
7F800000
FF800000
FF800000
FF800000
FE000000
7E000000
3E000000
ENDCHAR
STARTCHAR 003B
ENCODING 59
SWIDTH 970 0
DWIDTH 31 0
BBX 31 31 0 -5
BITMAP
00018000
00018000
00018000
00018000
00018000
00018000
00018000
00018000
00018000
00018000
00018000
00018000
00018000
00018000
00018000
FFFFFFFE
FFFFFFFE
00018000
00018000
00018000
00018000
00018000
00018000
00018000
00018000
00018000
00018000
00018000
00018000
00018000
00018000
ENDCHAR
STARTCHAR 003C
ENCODING 60
SWIDTH 970 0
DWIDTH 31 0
BBX 31 25 0 -2
BITMAP
00010000
00038000
0003C000
0007C000
0007E000
000EE000
001E7000
001C7000
00383800
00383C00
00701C00
00F00E00
00E00E00
01C00700
01C00780
03800380
078001C0
070001C0
0F0000E0
0E0000F0
1C000070
3C000038
38000038
7800001C
F000001E
ENDCHAR
STARTCHAR 003D
ENCODING 61
SWIDTH 970 0
DWIDTH 31 0
BBX 31 31 0 -5
BITMAP
00010000
003FF800
00E00E00
03800380
060000C0
0C000060
19FF8030
1079F018
30707808
20703C0C
60703C04
40703C04
40703C06
C0703806
C0707002
C07FE002
C0738002
C071C006
C071E006
4070F006
40707004
6070380C
20703C08
30701C18
19FE0F10
08000030
0C000060
070001C0
01C00300
00783E00
001FF000
ENDCHAR
STARTCHAR 003E
ENCODING 62
SWIDTH 970 0
DWIDTH 31 0
BBX 31 31 0 -5
BITMAP
00030000
003FF800
00E00E00
03800380
060000C0
0C000060
1807F230
10381E18
30700608
20E0020C
61C00304
41C00104
43C00006
C3800006
C3800002
C3800002
C3800002
C3800002
C3C00006
43C00006
41C00004
61E0010C
20F00208
30780C18
181FF010
08010030
0C000060
070001C0
01C00300
00783E00
001FF000
ENDCHAR
STARTCHAR 003F
ENCODING 63
SWIDTH 970 0
DWIDTH 31 0
BBX 31 30 0 -5
BITMAP
003FF800
00FFFE00
01FFFF80
07F01FC0
0FC003E0
1F0001F0
1E0000F8
3C000078
3800003C
7800003C
7000001C
7000001E
F000001E
F000001E
F000000E
F000000E
F000001E
F000001E
7000001E
7800001C
7800003C
3C00003C
3C000078
1E0000F0
0F8001F0
07C007E0
03F83FC0
01FFFF00
00FFFE00
001FF000
ENDCHAR
STARTCHAR 0040
ENCODING 64
SWIDTH 970 0
DWIDTH 31 0
BBX 31 31 0 -5
BITMAP
00010000
00010000
00018000
00038000
0003C000
0007C000
0007E000
000FE000
000FF000
001FF000
001FF800
003FF800
003FFC00
007FFC00
007FFE00
00FFFE00
00FFFF00
01FFFF00
01FFFF80
03FFFF80
03FFFFC0
07FFFFC0
07FFFFE0
0FFFFFE0
0FFFFFF0
1FFFFFF0
1FFFFFF8
3FFFFFF8
3FFFFFFC
7FFFFFFC
FFFFFFFE
ENDCHAR
STARTCHAR 0041
ENCODING 65
SWIDTH 970 0
DWIDTH 31 0
BBX 31 30 0 -5
BITMAP
80100000
C0180000
F01E0000
F81F0000
FC1F8000
FF1FE000
FF9FF000
FFCFF800
FFF7FE00
FFFBFF00
FFFCFF80
FFFF7FE0
FFFFBFF0
FFFFCFF8
FFFFF7FE
FFFFE7FC
FFFFDFF8
FFFF3FE0
FFFE7FC0
FFFDFF80
FFF3FE00
FFE7FC00
FFDFF800
FF1FE000
FE1FC000
FC1F8000
F01E0000
E01C0000
C0180000
80100000
ENDCHAR
STARTCHAR 0042
ENCODING 66
SWIDTH 970 0
DWIDTH 31 0
BBX 27 33 2 -6
BITMAP
80000FE0
C0000FE0
F0000FE0
F8000FE0
FE000FE0
FF000FE0
FFC00FE0
FFF00FE0
FFF80FE0
FFFE0FE0
FFFF8FE0
FFFFCFE0
FFFFFFE0
FFFFFFE0
FFFFFFE0
FFFFFFE0
FFFFFFE0
FFFFFFE0
FFFFFFE0
FFFFFFE0
FFFFFFE0
FFFFEFE0
FFFFCFE0
FFFF0FE0
FFFC0FE0
FFF80FE0
FFE00FE0
FFC00FE0
FF000FE0
FC000FE0
F8000FE0
E0000FE0
80000FE0
ENDCHAR
STARTCHAR 0043
ENCODING 67
SWIDTH 970 0
DWIDTH 31 0
BBX 23 32 4 -6
BITMAP
FFC7FE
FFC7FE
FFC7FE
FFC7FE
FFC7FE
FFC7FE
FFC7FE
FFC7FE
FFC7FE
FFC7FE
FFC7FE
FFC7FE
FFC7FE
FFC7FE
FFC7FE
FFC7FE
FFC7FE
FFC7FE
FFC7FE
FFC7FE
FFC7FE
FFC7FE
FFC7FE
FFC7FE
FFC7FE
FFC7FE
FFC7FE
FFC7FE
FFC7FE
FFC7FE
FFC7FE
FFC7FE
ENDCHAR
STARTCHAR 0044
ENCODING 68
SWIDTH 970 0
DWIDTH 31 0
BBX 27 32 2 -6
BITMAP
C0000000
E0000000
F8000000
FE000000
FF000000
FFC00000
FFF00000
FFF80000
FFFE0000
FFFF8000
FFFFC000
FFFFF000
FFFFF800
FFFFFE00
FFFFFF80
FFFFFFE0
FFFFFFC0
FFFFFF00
FFFFFE00
FFFFF800
FFFFE000
FFFFC000
FFFF0000
FFFE0000
FFF80000
FFE00000
FFC00000
FF000000
FC000000
F8000000
E0000000
80000000
ENDCHAR
STARTCHAR 0045
ENCODING 69
SWIDTH 970 0
DWIDTH 31 0
BBX 31 31 0 -5
BITMAP
00010000
003FF800
00FFFE00
03FFFF80
07FFFFC0
0FFFFFE0
1FFFFFF0
1FFFFFF8
3FFFFFF8
3FF83FFC
7FE00FFC
7FC007FC
7FC003FE
FF8003FE
FF8003FE
FF8003FE
FF8003FE
FF8003FE
FF8003FE
7FC007FE
7FE007FC
7FF01FFC
3FFC7FF8
3FFFFFF8
1FFFFFF0
0FFFFFF0
07FFFFE0
03FFFFC0
01FFFF00
007FFE00
001FF000
ENDCHAR
STARTCHAR 0046
ENCODING 70
SWIDTH 970 0
DWIDTH 31 0
BBX 31 30 0 -5
BITMAP
FFFFFFFE
FFFFFFFE
FFFFFFFE
FFFFFFFE
FFFFFFFE
FFFFFFFE
FFFFFFFE
FFFFFFFE
FFFFFFFE
FFFFFFFE
FFFFFFFE
FFFFFFFE
FFFFFFFE
FFFFFFFE
FFFFFFFE
FFFFFFFE
FFFFFFFE
FFFFFFFE
FFFFFFFE
FFFFFFFE
FFFFFFFE
FFFFFFFE
FFFFFFFE
FFFFFFFE
FFFFFFFE
FFFFFFFE
FFFFFFFE
FFFFFFFE
FFFFFFFE
FFFFFFFE
ENDCHAR
STARTCHAR 0047
ENCODING 71
SWIDTH 970 0
DWIDTH 31 0
BBX 27 33 2 -6
BITMAP
FE000020
FE000060
FE0000E0
FE0003E0
FE000FE0
FE001FE0
FE007FE0
FE00FFE0
FE03FFE0
FE0FFFE0
FE1FFFE0
FE7FFFE0
FFFFFFE0
FFFFFFE0
FFFFFFE0
FFFFFFE0
FFFFFFE0
FFFFFFE0
FFFFFFE0
FFFFFFE0
FFFFFFE0
FEFFFFE0
FE7FFFE0
FE1FFFE0
FE07FFE0
FE03FFE0
FE00FFE0
FE003FE0
FE001FE0
FE0007E0
FE0001E0
FE0000E0
FE000020
ENDCHAR
STARTCHAR 0048
ENCODING 72
SWIDTH 970 0
DWIDTH 31 0
BBX 31 30 0 -5
BITMAP
00001002
00003006
0000700E
0001F03E
0003F07E
0007F0FE
001FF3FE
003FF7FE
007FCFFE
01FFBFFE
03FF7FFE
07FCFFFE
1FFBFFFE
3FF7FFFE
FFDFFFFE
7FEFFFFE
3FF3FFFE
0FF9FFFE
07FEFFFE
03FF7FFE
00FF9FFE
007FEFFE
003FF3FE
000FF1FE
0007F0FE
0003F07E
0000F01E
0000700E
00003006
00001002
ENDCHAR
STARTCHAR 0049
ENCODING 73
SWIDTH 970 0
DWIDTH 31 0
BBX 31 30 0 -5
BITMAP
E2000000
E3800000
E3C00000
E3C00000
E3C40000
E3C70000
E3C78000
E3C7E000
E3C7F800
E3C7FC00
E3C7FF00
E3C7FFC0
E3C7FFE0
E3C7FFF8
E3C7FFFE
E3C7FFFC
E3C7FFF0
E3C7FFE0
E3C7FF80
E3C7FE00
E3C7FC00
E3C7F000
E3C7C000
E3C78000
E3C60000
E3C40000
E3C00000
E3C00000
E3800000
E2000000
ENDCHAR
STARTCHAR 004A
ENCODING 74
SWIDTH 970 0
DWIDTH 31 0
BBX 31 30 0 -5
BITMAP
00010000
00038000
0003C000
0007C000
000FE000
001FF000
001FF800
003FF800
007FFC00
00FFFE00
00FFFF00
01FFFF00
03FFFF80
07FFFFC0
07FFFFE0
0FFFFFF0
1FFFFFF0
3FFFFFF8
7FFFFFFC
FFFFFFFE
00000000
00000000
FFFFFFFE
FFFFFFFE
FFFFFFFE
FFFFFFFE
FFFFFFFE
FFFFFFFE
FFFFFFFE
FFFFFFFE
ENDCHAR
STARTCHAR 004B
ENCODING 75
SWIDTH 970 0
DWIDTH 31 0
BBX 31 31 0 -5
BITMAP
00000020
000000F0
000001F0
000001E0
000003E0
000003C0
000007C0
00000780
00000F80
00001F00
3FFFFF00
3FFFFE00
7FFFFE00
FFFFFF00
07FFFF80
003FFF80
0001FFC0
0001FFC0
0003FFE0
0007CFE0
000787F0
000F83F8
000F01F8
003E01FC
01FE00FC
03FE007E
01FE003C
001E001C
000F0008
00070000
00020000
ENDCHAR
STARTCHAR 004C
ENCODING 76
SWIDTH 970 0
DWIDTH 31 0
BBX 27 33 2 -6
BITMAP
00000400
00000400
00000400
00000E00
00FFCE00
03FFFE00
0FFFFF00
1FFFFF00
1F07FF80
3001FF80
4000FFC0
0001FFC0
0003FFC0
0003FFE0
0007E000
00000000
00000000
00000000
00020000
03FC0000
FFF80000
7FF80000
7FF00000
3FE00040
3FF00380
1FFF3F00
1FFFFE00
1FFFFC00
0FFFF800
0E1FC000
06000000
06000000
04000000
ENDCHAR
STARTCHAR 004D
ENCODING 77
SWIDTH 970 0
DWIDTH 31 0
BBX 31 26 0 -3
BITMAP
007FC000
01FFF000
07FFF800
0FFFFE00
1F807E00
3F001F00
3E000F80
7C000780
780007C0
780003C0
F0007FFE
F0001FFC
F0001FF8
F0000FF0
F00007E0
F80003E0
780001C0
78000080
3C000000
3E000000
1F002000
0FC0F000
07FFF000
03FFF800
01FFE000
003F0000
ENDCHAR
STARTCHAR 004E
ENCODING 78
SWIDTH 970 0
DWIDTH 31 0
BBX 31 22 0 -1
BITMAP
00000038
0000007C
000000FE
000001FE
000003FC
000007FC
18000FF8
3C001FF0
7E003FE0
FF007FC0
FF80FF80
7FC1FF00
3FE3FE00
1FF7FC00
0FFFF800
07FFF000
03FFE000
01FFC000
00FF8000
007F0000
003E0000
00180000
ENDCHAR
STARTCHAR 004F
ENCODING 79
SWIDTH 970 0
DWIDTH 31 0
BBX 31 30 0 -5
BITMAP
7FC00000
FFF80000
FFFF0000
7FFF8000
7FFFE000
03FFF000
003FFC00
0007FE00
0001FF00
7F80FF00
FFF07F80
FFF81FC0
7FFE1FE0
7FFF0FE0
07FF87F0
007FC3F0
003FE3F8
000FE1F8
0007F1F8
0003F0FC
1F03F8FC
3F81F8FC
7FC1F87E
FFC0FC7E
FFE0FC7E
FFE0FC7E
7FC0FC7E
7FC0FC7E
3F80FC7E
1F00783C
ENDCHAR
STARTCHAR 0050
ENCODING 80
SWIDTH 970 0
DWIDTH 31 0
BBX 29 32 1 -6
BITMAP
003FE000
00FFF800
01FFFC00
03FFFE00
07F8FF00
0FE03F80
0FC00F80
1F800FC0
1F0007C0
1F0007C0
1F0003C0
1F0003C0
1F0003C0
1F0003C0
FFFFFFF8
FFFFFFF8
FFFFFFF8
FFFFFFF8
FFFCFFF8
FFF87FF8
FFF07FF8
FFF87FF8
FFF8FFF8
FFF8FFF8
FFF8FFF8
FFF8FFF8
FFF8FFF8
FFF8FFF8
FFFFFFF8
FFFFFFF8
FFFFFFF8
FFFFFFF8
ENDCHAR
STARTCHAR 0051
ENCODING 81
SWIDTH 970 0
DWIDTH 31 0
BBX 31 31 0 -5
BITMAP
03FFFF80
03FFFF80
03FFFF80
03FFFF80
03FFFF80
03FFFF80
03FFFF80
03FFFF80
03FFFF80
03FFFF80
03FFFF80
03FFFF80
00018000
00018000
00018000
00018000
03FFFF80
03FFFF80
02000080
02000080
FFF83FFE
FFF83FFE
FFF83FFE
FFF83FFE
FFF83FFE
FFF83FFE
FFF83FFE
FFF83FFE
FFF83FFE
FFF83FFE
FFF83FFE
ENDCHAR
STARTCHAR 0052
ENCODING 82
SWIDTH 970 0
DWIDTH 31 0
BBX 31 18 0 1
BITMAP
000C0000
000E0000
00078000
07FFCFC0
1FFFEFF0
3FFFEFF8
7FFFCFFC
7C0F003C
780E001E
F00C001E
F000001E
F000001E
7800001E
7C00007C
7FFFFFFC
3FFFFFF8
1FFFFFF0
07FFFFC0
ENDCHAR
STARTCHAR 0053
ENCODING 83
SWIDTH 970 0
DWIDTH 31 0
BBX 31 26 0 -3
BITMAP
00000C00
00001E00
00003F00
00007F80
0000FFC0
FFFDFFE0
FFFBFFF0
FFF7FFF8
FFEFFFFC
FFEF9F7E
F80E1F1E
FBF1DFE2
F7FFDFFE
F7FFDFFE
F7FFDFFC
E7FFDFFC
EFFFDFFC
EFFFDFF8
EFFFDFF8
DFFFDFF8
DFFFEEF8
DFFFFFF0
9FFFFFF0
7FFFFFF0
3FFFFFE0
1FFFFFC0
ENDCHAR
STARTCHAR 0054
ENCODING 84
SWIDTH 970 0
DWIDTH 31 0
BBX 31 31 0 -5
BITMAP
00010000
003FF800
00FFFE00
03FFFF80
07FFFFC0
0FF81FE0
1FC007F0
1F8003F0
3FC001F8
3FE000FC
7CF0007C
7C78007C
783C003E
F81E003E
F80F003E
F807803E
F803C03E
F801E03E
F800F03E
7800783C
7C003C7C
7C001E7C
3E000FF8
3F0007F8
1F8003F0
0FE00FE0
07FC7FE0
03FFFFC0
01FFFF00
007FFE00
001FF000
ENDCHAR
STARTCHAR 0055
ENCODING 85
SWIDTH 970 0
DWIDTH 31 0
BBX 31 27 0 -3
BITMAP
00018000
00038000
00078000
00078000
000F8000
001F8000
003F8000
007F8000
FFFF8000
FFFF8000
FFFF8000
FFFF8000
FFFF8FFE
FFFF8FFE
FFFF8FFE
FFFF8FFE
FFFF8000
FFFF8000
FFFF8000
00FF8000
007F8000
003F8000
001F8000
000F8000
00078000
00038000
00018000
ENDCHAR
STARTCHAR 0056
ENCODING 86
SWIDTH 970 0
DWIDTH 31 0
BBX 31 28 0 -4
BITMAP
0000C000
0001C000
0003C000
0007C000
000FC000
001FC000
003FC000
007FC000
FFFFC1E0
FFFFC1E0
FFFFC1E0
FFFFC1E0
FFFFCFFE
FFFFCFFE
FFFFCFFE
FFFFCFFE
FFFFC1E0
FFFFC1E0
FFFFC1E0
00FFC0E0
007FC000
003FC000
001FC000
000FC000
0007C000
0003C000
0001C000
00008000
ENDCHAR
STARTCHAR 0057
ENCODING 87
SWIDTH 970 0
DWIDTH 31 0
BBX 31 30 0 -5
BITMAP
07C007E0
1FF01FF0
3FF83FF8
7FFC7FFC
7FFEFFFE
FFFEFFFE
FFFFFFFE
FFFFFFFE
7FFFFFFE
7FFFFFFE
7FFFFFFC
3FFFFFFC
1FFFFFF8
1FFFFFF0
0FFFFFE0
07FFFFC0
03FFFF80
01FFFF00
00FFFF00
007FFE00
003FFC00
001FF800
000FF000
0007E000
0003C000
00038000
00018000
00010000
00010000
00010000
ENDCHAR
STARTCHAR 0058
ENCODING 88
SWIDTH 970 0
DWIDTH 31 0
BBX 25 33 3 -6
BITMAP
01000000
07800000
07800000
07800000
07800000
07800000
07800000
07800000
07800000
07800000
079C0000
079C6000
079CF100
079CF380
E79CF380
E7FFFF80
E7FFFF80
E7FFFF80
E7FFFF80
E7FFFF80
E7FFFF80
FFFFFF80
FFFFFF80
FFFFFF80
FFFFFF80
7FFFFF80
3FFFFF80
3FFFFF80
1FFFFF80
0FFFFF80
0FFFFF80
07FFFF80
03FFFF00
ENDCHAR
STARTCHAR 0059
ENCODING 89
SWIDTH 970 0
DWIDTH 31 0
BBX 23 33 4 -6
BITMAP
001000
003800
003800
023880
0739C0
0739C0
0739C0
0739C6
0739CE
0739CE
0739CE
0739CE
0739CE
0739CE
0739CE
0739CE
E739CE
E7FFFE
E7FFFE
E7FFFE
E7FFFE
E7FFFE
FFFFFE
FFFFFE
FFFFFE
7FFFFE
7FFFFE
3FFFFE
1FFFFE
1FFFFE
0FFFFE
07FFFE
07FFFC
ENDCHAR
STARTCHAR 005A
ENCODING 90
SWIDTH 970 0
DWIDTH 31 0
BBX 31 31 0 -5
BITMAP
00000060
00004060
0000E070
0001E030
0003E038
0007E238
000FE71C
000FE31C
001FE39C
003FE39C
FFFFE38E
FFFFE38E
FFFFE38E
FFFFE1CE
FFFFE1CE
FFFFE1CE
FFFFE1CE
FFFFE1CE
FFFFE18E
FFFFE38E
FFFFE38E
FFFFE39C
007FE39C
003FE31C
001FE71C
000FE718
0007E638
0003E038
0001E030
0001E070
0000E060
ENDCHAR
STARTCHAR 005B
ENCODING 91
SWIDTH 970 0
DWIDTH 31 0
BBX 30 30 1 -5
BITMAP
80000000
E0000000
F8000000
FE000000
FF800000
FFE00000
FFF80000
FFFE0000
FFFF8000
FFFFE000
FFFFF800
FFFFFE00
FFFFFF80
FFFFFFE0
FFFFFFFC
FFFFFFF0
FFFFFFC0
FFFFFF00
FFFFFC00
FFFFF000
FFFFC000
FFFF0000
FFFC0000
FFF00000
FFC00000
FF000000
FC000000
F0000000
C0000000
80000000
ENDCHAR
STARTCHAR 005C
ENCODING 92
SWIDTH 970 0
DWIDTH 31 0
BBX 31 31 0 -5
BITMAP
FFFFFFFE
7FFFFFFC
7FFFFFFC
3FFFFFF8
3FFFFFF8
1FFFFFF0
1FFFFFF0
0FFFFFE0
0FFFFFE0
07FFFFC0
07FFFFC0
03FFFF80
03FFFF80
01FFFF00
01FFFF00
00FFFE00
00FFFE00
007FFC00
007FFC00
003FF800
003FF800
001FF000
001FF000
000FE000
000FE000
0007C000
0007C000
00038000
00038000
00010000
00010000
ENDCHAR
STARTCHAR 005D
ENCODING 93
SWIDTH 970 0
DWIDTH 31 0
BBX 31 30 0 -5
BITMAP
00000006
0000001E
0000007E
000001FE
000007FE
00001FFE
00007FFE
0001FFFE
0007FFFE
001FFFFE
007FFFFE
01FFFFFE
07FFFFFE
1FFFFFFE
FFFFFFFE
7FFFFFFE
1FFFFFFE
07FFFFFE
00FFFFFE
003FFFFE
000FFFFE
0003FFFE
0000FFFE
00003FFE
00000FFE
000003FE
000000FE
0000003E
0000000E
00000002
ENDCHAR
STARTCHAR 005E
ENCODING 94
SWIDTH 970 0
DWIDTH 31 0
BBX 31 11 0 5
BITMAP
04000040
04000020
08000030
18000018
3FFFFFFC
FFFFFFFE
7FFFFFFC
38000018
18000030
08000020
04000060
ENDCHAR
STARTCHAR 005F
ENCODING 95
SWIDTH 970 0
DWIDTH 31 0
BBX 11 33 10 -6
BITMAP
0400
0600
0F00
1F80
3FC0
CE60
0E00
0E00
0E00
0E00
0E00
0E00
0E00
0E00
0E00
0E00
0E00
0E00
0E00
0E00
0E00
0E00
0E00
0E00
0E00
0E00
0E00
8E20
6EC0
3F80
1F00
0E00
0400
ENDCHAR
STARTCHAR 0060
ENCODING 96
SWIDTH 970 0
DWIDTH 31 0
BBX 12 33 10 -6
BITMAP
0E00
0E00
0E00
0E00
0E00
0E00
0E00
0E00
0E00
0E00
0E00
0E00
0E00
0E00
0E00
0E00
0E00
0E00
0E00
0E00
0E00
0E00
0E00
0E00
0E00
0E00
0E00
8E10
6EE0
3F80
1F00
0E00
0400
ENDCHAR
STARTCHAR 0061
ENCODING 97
SWIDTH 970 0
DWIDTH 31 0
BBX 31 17 0 1
BITMAP
00000020
001E0060
00FFE060
01FFF8E0
03FFFFF0
07FFFFF0
0FFFFFF0
1FFFFFF8
1F03FFF8
3800FFF8
70003FF8
40007FFC
80007FFC
0000FFFC
0001FFFC
0003FFFE
0007FFFE
ENDCHAR
STARTCHAR 0062
ENCODING 98
SWIDTH 970 0
DWIDTH 31 0
BBX 31 17 0 1
BITMAP
04000000
04004000
0E07FC00
0E1FFF00
0F7FFF80
0FFFFFC0
1FFFFFE0
1FFFFFF0
1FFFC1F0
3FFE0038
3FFC001C
3FFC0004
3FFE0002
7FFE0000
7FFF0000
7FFF8000
FFFFC000
ENDCHAR
STARTCHAR 0063
ENCODING 99
SWIDTH 970 0
DWIDTH 31 0
BBX 31 33 0 -7
BITMAP
0007E000
000FE000
000FF000
000FF000
000FF000
000FF000
000FF000
000FF000
000FF000
000FF000
000FF000
000FF000
000FF000
000FF000
000FF000
780FF03C
FE0FF0FE
FF8FF3FE
7FEFFFFE
7FFFFFFC
3FFFFFF8
1FFFFFF0
0FFFFFE0
07FFFFC0
03FFFF80
01FFFF00
00FFFE00
007FFC00
003FF800
001FF000
000FE000
0007C000
00018000
ENDCHAR
STARTCHAR 0064
ENCODING 100
SWIDTH 970 0
DWIDTH 31 0
BBX 31 30 0 -5
BITMAP
000000E0
000001F0
080003F8
3C0007FC
7C000FFE
FE001FFE
FE003FFC
FF007FF8
FF00FFF0
FF01FFE0
FF83FFC0
FF87FF80
FF8FFF00
FFDFFE00
FFFFFC00
FFFFF800
FFFFF000
FFFFE000
FFFFC000
FFFF8000
FFFF0000
FFFFE000
FFFFFC00
FFFFFF80
FFFFFFE0
FFFFFFF0
FFFFFFF0
7FFFFFF0
7FFFFFE0
3FFFFFC0
ENDCHAR
STARTCHAR 0065
ENCODING 101
SWIDTH 970 0
DWIDTH 31 0
BBX 31 30 0 -5
BITMAP
0F000000
1F800000
3FC00020
7FE0007C
FFF0007C
7FF800FE
7FFC00FE
3FFE01FE
1FFF01FE
0FFF81FE
07FFC3FE
03FFE3FE
01FFF3FE
00FFFFFE
007FFFFE
003FFFFE
001FFFFE
000FFFFE
0007FFFE
0003FFFE
0001FFFE
000FFFFE
007FFFFE
03FFFFFE
0FFFFFFE
1FFFFFFE
1FFFFFFE
1FFFFFFE
0FFFFFFC
07FFFFF8
ENDCHAR
STARTCHAR 0066
ENCODING 102
SWIDTH 970 0
DWIDTH 31 0
BBX 31 29 0 -5
BITMAP
00070000
000F8000
001F8000
003F8000
007F0000
00FF0000
01FE0000
03FE0000
07FC0000
0FFC0000
1FF80000
3FFFFFFC
7FFFFFFE
FFFFFFFE
FFFFFFFE
FFFFFFFE
7FFFFFFE
3FFFFFFC
1FFC0000
0FFC0000
07FE0000
03FE0000
01FF0000
00FF0000
007F8000
003F8000
001F8000
000F8000
00020000
ENDCHAR
STARTCHAR 0067
ENCODING 103
SWIDTH 970 0
DWIDTH 31 0
BBX 31 28 0 -3
BITMAP
0001E000
0003F000
0003F800
0001FC00
0001FE00
0000FF00
0000FF80
00007FC0
00007FE0
00003FF0
00003FF8
7FFFFFFC
FFFFFFFE
FFFFFFFE
FFFFFFFE
FFFFFFFE
FFFFFFFC
3FFFFFF8
00007FF0
00007FE0
0000FFC0
0000FF80
0001FF00
0001FE00
0001FC00
0003F800
0003F000
0001E000
ENDCHAR
STARTCHAR 0068
ENCODING 104
SWIDTH 970 0
DWIDTH 31 0
BBX 31 33 0 -6
BITMAP
00010000
0007C000
000FE000
001FF000
003FF800
007FFC00
00FFFE00
01FFFF00
03FFFF80
07FFFFC0
0FFFFFE0
1FFFFFF0
3FFFFFF8
7FFFFFFC
7FFFFFFE
FFCFF3FE
FF0FF0FE
7C0FF03C
000FF000
000FF000
000FF000
000FF000
000FF000
000FF000
000FF000
000FF000
000FF000
000FF000
000FF000
000FF000
000FF000
000FF000
0007E000
ENDCHAR
STARTCHAR 0069
ENCODING 105
SWIDTH 970 0
DWIDTH 31 0
BBX 31 31 0 -5
BITMAP
1FFFFFC0
7FFFFFE0
7FFFFFF0
FFFFFFF0
FFFFFFF0
FFFFFFF0
FFFFFFC0
FFFFFF00
FFFFF800
FFFFC000
FFFF0000
FFFF8000
FFFFC000
FFFFE000
FFFFF000
FFFFF800
FFFFFC00
FFDFFE00
FF8FFF00
FF87FF80
FF83FFC0
FF01FFE0
FF00FFF0
FF007FF8
FE003FFC
FE001FFE
7C000FFE
3C0007FE
000003FC
000001F8
000000F0
ENDCHAR
STARTCHAR 006A
ENCODING 106
SWIDTH 970 0
DWIDTH 31 0
BBX 31 31 0 -5
BITMAP
07FFFFF8
0FFFFFFC
1FFFFFFE
1FFFFFFE
1FFFFFFE
0FFFFFFE
07FFFFFE
00FFFFFE
001FFFFE
0003FFFE
0001FFFE
0003FFFE
0007FFFE
000FFFFE
001FFFFE
003FFFFE
007FFFFE
00FFF3FE
01FFE3FE
03FFC3FE
07FF81FE
0FFF01FE
1FFE01FE
3FFC00FE
7FF800FE
FFF000FE
FFE0007C
7FC00038
3F800000
1F000000
0E000000
ENDCHAR
STARTCHAR 006B
ENCODING 107
SWIDTH 970 0
DWIDTH 31 0
BBX 31 27 0 -3
BITMAP
00004000
00004000
00006000
00007000
00007800
00007C00
00007E00
003FFF00
01FFFF80
03FFFFC0
0FFFFFE0
1FFFFFF0
1FFFFFF8
3FFFFFFC
3FFFFFFE
7FC0FFF8
7F01FFE0
7C01FF80
F801FF00
F001FC00
F001F000
E001C000
C0038000
C0020000
80000000
80000000
80000000
ENDCHAR
STARTCHAR 006C
ENCODING 108
SWIDTH 1064 0
DWIDTH 34 0
BBX 34 30 0 -5
BITMAP
0001000000
0002000000
0006000000
000E000000
001E000000
003E000000
007E000000
00FFF80000
01FFFF8000
03FFFFE000
07FFFFF800
0FFFFFFC00
1FFFFFFE00
3FFFFFFF00
7FFFFFFF00
FFFFFFFF80
3FFF83FF80
0FFF807F80
03FF801FC0
00FFC00FC0
007FC007C0
001FC003C0
0007C001C0
0001C001C0
0000C000C0
00002000C0
0000000040
0000000040
0000000040
0000000040
ENDCHAR
STARTCHAR 006D
ENCODING 109
SWIDTH 970 0
DWIDTH 31 0
BBX 27 33 2 -6
BITMAP
00FFE000
00FFE000
00FFE000
00FFE000
00FFE000
00FFE000
00FFE000
00FFE000
00FFE000
00FFE000
00FFE000
00FFE000
00FFE000
00FFE000
00FFE000
00FFE000
00FFE000
00FFE000
80FFE020
7FFFFFC0
3FFFFF80
1FFFFF80
0FFFFF00
07FFFE00
07FFFC00
03FFF800
01FFF000
00FFE000
007FC000
003F8000
001F0000
000E0000
00040000
ENDCHAR
STARTCHAR 006E
ENCODING 110
SWIDTH 970 0
DWIDTH 31 0
BBX 31 26 0 -3
BITMAP
00040000
000C0000
001C0000
003C0000
007C0000
00FC0000
01FC0000
03FFFFFE
07FFFFFE
0FFFFFFE
1FFFFFFE
3FFFFFFE
FFFFFFFE
7FFFFFFE
3FFFFFFE
1FFFFFFE
0FFFFFFE
07FFFFFE
03FC0000
01FC0000
007C0000
003C0000
001C0000
000C0000
00040000
00040000
ENDCHAR
STARTCHAR 006F
ENCODING 111
SWIDTH 970 0
DWIDTH 31 0
BBX 31 26 0 -3
BITMAP
00004000
00006000
00007000
00007800
00007C00
00007E00
00007F00
FFFFFF80
FFFFFFC0
FFFFFFE0
FFFFFFF0
FFFFFFFC
FFFFFFFE
FFFFFFFC
FFFFFFF8
FFFFFFF0
FFFFFFE0
FFFFFFC0
00007F80
00007F00
00007E00
00007C00
00007000
00006000
00004000
00004000
ENDCHAR
STARTCHAR 0070
ENCODING 112
SWIDTH 970 0
DWIDTH 31 0
BBX 27 33 2 -6
BITMAP
00040000
00060000
000F0000
001F0000
003F8000
007FC000
00FFE000
01FFF000
03FFF800
07FFFC00
0FFFFE00
1FFFFF00
1FFFFF80
3FFFFFC0
FFFFFFE0
00FFE000
00FFE000
00FFE000
00FFE000
00FFE000
00FFE000
00FFE000
00FFE000
00FFE000
00FFE000
00FFE000
00FFE000
00FFE000
00FFE000
00FFE000
00FFE000
00FFE000
00FFE000
ENDCHAR
STARTCHAR 0071
ENCODING 113
SWIDTH 970 0
DWIDTH 31 0
BBX 28 33 2 -6
BITMAP
00002000
00002000
00003000
00007800
00007800
0000FC00
0001FC00
0001FE00
0003FE00
F803FF00
F807FF80
F80FFF80
F80FFFC0
F81FFFC0
F81FFFE0
F83FFFF0
F800F800
F800F800
F800F800
F800F800
F800F800
F800F800
F800F800
F800F800
F800F800
FC01F800
FE03F800
7F07F000
3FFFE000
3FFFE000
1FFFC000
07FF0000
01FE0000
ENDCHAR
STARTCHAR 0072
ENCODING 114
SWIDTH 970 0
DWIDTH 31 0
BBX 31 26 0 -3
BITMAP
00060000
001E0000
003E0000
00FE0000
03FE0000
07FE0000
1FFFFF80
FFFFFFE0
7FFFFFF0
1FFFFFF8
07FFFFFC
03FE00FC
00FE007C
003E003E
000E003E
0006003E
0000003E
0000003E
0000007E
0000007C
000001FC
00FFFFF8
00FFFFF0
00FFFFE0
00FFFFC0
00FFFF00
ENDCHAR
STARTCHAR 0073
ENCODING 115
SWIDTH 970 0
DWIDTH 31 0
BBX 31 24 0 -2
BITMAP
001FF800
01FFFF00
07FFFFC0
0FFFFFE0
1FFFFFF0
3FFFFFF8
7FFFFFFC
7FFFFFFC
FFFFFFFE
FFFFFFFE
FFFFFFFE
FFFFFFFE
7FFFFFFE
7FFFFFFC
3FFFFFFC
3FFFFFF8
1FFFFFF0
07FFFFC0
03FFFF80
007FFC00
001F0000
001E0000
00380000
00E00000
ENDCHAR
STARTCHAR 0074
ENCODING 116
SWIDTH 970 0
DWIDTH 31 0
BBX 31 26 0 -3
BITMAP
7FFFFFFC
FFFFFFFE
FFFFFFFE
FFFFFFFE
FFFFFFFE
FFFFFFFE
FFFFFFFE
FFFFFFFE
FFFFFFFE
FFFFFFFE
FFFFFFFE
FFFFFFFE
FFFFFFFE
FFFFFFFE
FFFFFFFE
FFFFFFFE
FFFFFFFE
FFFFFFFE
FFFFFFFE
7FFFFFFC
00078000
00070000
000E0000
00080000
00100000
00200000
ENDCHAR
STARTCHAR 0075
ENCODING 117
SWIDTH 970 0
DWIDTH 31 0
BBX 31 24 0 -2
BITMAP
003FF800
01FFFF00
07FFFFC0
0FFFFFE0
1FFFFFF8
3FFFFFF8
7FFFFFFC
7FFFFFFC
FFFFFFFE
FFFFFFFE
FFFFFFFE
FFFFFFFE
7FFFFFFE
7FFFFFFC
3FFFFFFC
3FFFFFF8
0FFFFFF0
07FFFFC0
01FFFF80
007FFC00
0000F000
00007000
00003800
00000E00
ENDCHAR
STARTCHAR 0076
ENCODING 118
SWIDTH 970 0
DWIDTH 31 0
BBX 31 26 0 -3
BITMAP
7FFFFFFC
FFFFFFFE
FFFFFFFE
FFFFFFFE
FFFFFFFE
FFFFFFFE
FFFFFFFE
FFFFFFFE
FFFFFFFE
FFFFFFFE
FFFFFFFE
FFFFFFFE
FFFFFFFE
FFFFFFFE
FFFFFFFE
FFFFFFFE
FFFFFFFE
FFFFFFFE
FFFFFFFE
7FFFFFFC
0003C000
0001E000
00006000
00003000
00001000
00000800
ENDCHAR
STARTCHAR 0077
ENCODING 119
SWIDTH 970 0
DWIDTH 31 0
BBX 31 31 0 -5
BITMAP
00010000
0007C000
0007C000
0007E000
0707E1C0
0FBFF3E0
0FFFFFE0
0FFFFFE0
0FFFFFE0
07FFFFC0
07FFFF80
07F83F80
0FF01FC0
7FE00FFC
7FE00FFE
FFE007FE
FFE00FFE
7FE00FFC
3FE00FF8
07F01F80
07FC7F80
03FFFF80
07FFFFC0
0FFFFFE0
0FFFFFE0
0FDFE7E0
0F87E3E0
0307E180
0007E000
0007C000
0003C000
ENDCHAR
STARTCHAR 0078
ENCODING 120
SWIDTH 970 0
DWIDTH 31 0
BBX 31 26 0 -3
BITMAP
11800000
1B800000
1FB00000
5FF00000
F8F00000
F0E07000
30F0F1C0
78F8F9E0
7FF0FFE0
6FCFFFC0
0FDFFFC0
0CDFFFFC
000FE1FE
0007C0FE
000780FC
000F80F0
003F80E0
003FC1F8
003FF3FC
000BFFFC
0001FFFC
0001FF18
0003FF80
0003C780
00018780
00000200
ENDCHAR
STARTCHAR 0079
ENCODING 121
SWIDTH 970 0
DWIDTH 31 0
BBX 31 27 0 -3
BITMAP
003E0000
00FF81E0
01FFE7FC
03F807C0
07F00780
0FF00FFE
0FF80FFC
1FFC0FF8
7C7E1FF0
FC1F3FC0
7C0FBFC0
3C07FE20
0803F800
0003F000
0007F800
000FFC00
003FBE00
007F1F00
00FE1F80
01FC0FC0
07F807E0
0FF003F8
1FE001FC
3FC000FE
3F80007C
1F000038
0E000030
ENDCHAR
STARTCHAR 007A
ENCODING 122
SWIDTH 970 0
DWIDTH 31 0
BBX 31 31 0 -5
BITMAP
00001000
00002000
00006000
0000C000
0001C000
0003C000
0003C000
0003C000
00038000
00078000
00078000
00078000
00078002
0007007C
1F8F07F8
3FEFFFF0
7FEFFFE0
F0FFFF00
F0FFE000
F3FE0000
7FDE0000
7FBF8000
1F7F8000
007F8000
0071C000
00F1C000
00F38000
00F78000
007F8000
007F0000
003E0000
ENDCHAR
STARTCHAR 007B
ENCODING 123
SWIDTH 970 0
DWIDTH 31 0
BBX 31 29 0 -4
BITMAP
00000FC0
00000780
000007C0
000003E0
000002F0
00000270
00000038
0000003C
0000001C
0000001C
0000000E
0000000E
0000000E
0000000E
E000000E
E000000E
E000000E
6000000E
7000001C
7000001C
3800003C
38000038
1C000070
0E0000F0
0F8003E0
07E007C0
01FEFF00
00FFFE00
001FF000
ENDCHAR
STARTCHAR 007C
ENCODING 124
SWIDTH 970 0
DWIDTH 31 0
BBX 31 29 0 -4
BITMAP
07E00000
01C00000
07C00000
0FC00000
0E800000
1C800000
38000000
38000000
70000000
70000000
60000000
E0000000
E0000000
E0000000
E000000E
E000000E
E000000E
6000000E
7000001C
7000001C
3800003C
38000038
1C000070
1E0000F0
0F8001E0
07C007C0
01FC7F80
00FFFE00
003FF800
ENDCHAR
STARTCHAR 007D
ENCODING 125
SWIDTH 500 0
DWIDTH 16 0
BBX 0 0 0 0
BITMAP
ENDCHAR
STARTCHAR 007E
ENCODING 126
SWIDTH 500 0
DWIDTH 16 0
BBX 0 0 0 0
BITMAP
ENDCHAR
STARTCHAR 00A0
ENCODING 160
SWIDTH 250 0
DWIDTH 8 0
BBX 0 0 0 0
BITMAP
ENDCHAR
STARTCHAR 00A1
ENCODING 161
SWIDTH 344 0
DWIDTH 11 0
BBX 0 0 0 0
BITMAP
ENDCHAR
STARTCHAR 00A2
ENCODING 162
SWIDTH 563 0
DWIDTH 18 0
BBX 0 0 0 0
BITMAP
ENDCHAR
STARTCHAR 00A3
ENCODING 163
SWIDTH 500 0
DWIDTH 16 0
BBX 0 0 0 0
BITMAP
ENDCHAR
STARTCHAR 00A4
ENCODING 164
SWIDTH 500 0
DWIDTH 16 0
BBX 0 0 0 0
BITMAP
ENDCHAR
STARTCHAR 00A5
ENCODING 165
SWIDTH 626 0
DWIDTH 20 0
BBX 0 0 0 0
BITMAP
ENDCHAR
STARTCHAR 00A6
ENCODING 166
SWIDTH 500 0
DWIDTH 16 0
BBX 0 0 0 0
BITMAP
ENDCHAR
STARTCHAR 00A7
ENCODING 167
SWIDTH 500 0
DWIDTH 16 0
BBX 0 0 0 0
BITMAP
ENDCHAR
STARTCHAR 00A8
ENCODING 168
SWIDTH 500 0
DWIDTH 16 0
BBX 0 0 0 0
BITMAP
ENDCHAR
STARTCHAR 00A9
ENCODING 169
SWIDTH 813 0
DWIDTH 26 0
BBX 0 0 0 0
BITMAP
ENDCHAR
STARTCHAR 00AA
ENCODING 170
SWIDTH 313 0
DWIDTH 10 0
BBX 0 0 0 0
BITMAP
ENDCHAR
STARTCHAR 00AB
ENCODING 171
SWIDTH 469 0
DWIDTH 15 0
BBX 0 0 0 0
BITMAP
ENDCHAR
STARTCHAR 00AC
ENCODING 172
SWIDTH 500 0
DWIDTH 16 0
BBX 0 0 0 0
BITMAP
ENDCHAR
STARTCHAR 00AD
ENCODING 173
SWIDTH 970 0
DWIDTH 31 0
BBX 31 31 0 -5
BITMAP
00010000
003FF800
00FC7E00
03C00780
070001C0
0E0000E0
1E000870
1B001838
31801818
30C0381C
6070780C
6000F80C
603FF806
C03FF806
C03FF806
C03FF806
C03FF806
C03FF806
C03FF806
603FF80E
6000F80C
6000780C
30003A18
38001B18
180009B0
0C0000F0
070000E0
038003C0
01E00F00
007FFE00
001FF000
ENDCHAR
STARTCHAR 00AE
ENCODING 174
SWIDTH 813 0
DWIDTH 26 0
BBX 0 0 0 0
BITMAP
ENDCHAR
STARTCHAR 00AF
ENCODING 175
SWIDTH 313 0
DWIDTH 10 0
BBX 0 0 0 0
BITMAP
ENDCHAR
STARTCHAR 00B0
ENCODING 176
SWIDTH 344 0
DWIDTH 11 0
BBX 0 0 0 0
BITMAP
ENDCHAR
STARTCHAR 00B1
ENCODING 177
SWIDTH 500 0
DWIDTH 16 0
BBX 0 0 0 0
BITMAP
ENDCHAR
STARTCHAR 00B2
ENCODING 178
SWIDTH 500 0
DWIDTH 16 0
BBX 0 0 0 0
BITMAP
ENDCHAR
STARTCHAR 00B3
ENCODING 179
SWIDTH 500 0
DWIDTH 16 0
BBX 0 0 0 0
BITMAP
ENDCHAR
STARTCHAR 00B4
ENCODING 180
SWIDTH 500 0
DWIDTH 16 0
BBX 0 0 0 0
BITMAP
ENDCHAR
STARTCHAR 00B5
ENCODING 181
SWIDTH 563 0
DWIDTH 18 0
BBX 0 0 0 0
BITMAP
ENDCHAR
STARTCHAR 00B6
ENCODING 182
SWIDTH 500 0
DWIDTH 16 0
BBX 0 0 0 0
BITMAP
ENDCHAR
STARTCHAR 00B7
ENCODING 183
SWIDTH 250 0
DWIDTH 8 0
BBX 0 0 0 0
BITMAP
ENDCHAR
STARTCHAR 00B8
ENCODING 184
SWIDTH 500 0
DWIDTH 16 0
BBX 0 0 0 0
BITMAP
ENDCHAR
STARTCHAR 00B9
ENCODING 185
SWIDTH 500 0
DWIDTH 16 0
BBX 0 0 0 0
BITMAP
ENDCHAR
STARTCHAR 00BA
ENCODING 186
SWIDTH 344 0
DWIDTH 11 0
BBX 0 0 0 0
BITMAP
ENDCHAR
STARTCHAR 00BB
ENCODING 187
SWIDTH 469 0
DWIDTH 15 0
BBX 0 0 0 0
BITMAP
ENDCHAR
STARTCHAR 00BC
ENCODING 188
SWIDTH 845 0
DWIDTH 27 0
BBX 0 0 0 0
BITMAP
ENDCHAR
STARTCHAR 00BD
ENCODING 189
SWIDTH 970 0
DWIDTH 31 0
BBX 0 0 0 0
BITMAP
ENDCHAR
STARTCHAR 00BE
ENCODING 190
SWIDTH 845 0
DWIDTH 27 0
BBX 0 0 0 0
BITMAP
ENDCHAR
STARTCHAR 00BF
ENCODING 191
SWIDTH 375 0
DWIDTH 12 0
BBX 0 0 0 0
BITMAP
ENDCHAR
STARTCHAR 00C0
ENCODING 192
SWIDTH 751 0
DWIDTH 24 0
BBX 0 0 0 0
BITMAP
ENDCHAR
STARTCHAR 00C1
ENCODING 193
SWIDTH 751 0
DWIDTH 24 0
BBX 0 0 0 0
BITMAP
ENDCHAR
STARTCHAR 00C2
ENCODING 194
SWIDTH 751 0
DWIDTH 24 0
BBX 0 0 0 0
BITMAP
ENDCHAR
STARTCHAR 00C3
ENCODING 195
SWIDTH 751 0
DWIDTH 24 0
BBX 0 0 0 0
BITMAP
ENDCHAR
STARTCHAR 00C4
ENCODING 196
SWIDTH 751 0
DWIDTH 24 0
BBX 0 0 0 0
BITMAP
ENDCHAR
STARTCHAR 00C5
ENCODING 197
SWIDTH 751 0
DWIDTH 24 0
BBX 0 0 0 0
BITMAP
ENDCHAR
STARTCHAR 00C6
ENCODING 198
SWIDTH 1033 0
DWIDTH 33 0
BBX 0 0 0 0
BITMAP
ENDCHAR
STARTCHAR 00C7
ENCODING 199
SWIDTH 688 0
DWIDTH 22 0
BBX 0 0 0 0
BITMAP
ENDCHAR
STARTCHAR 00C8
ENCODING 200
SWIDTH 563 0
DWIDTH 18 0
BBX 0 0 0 0
BITMAP
ENDCHAR
STARTCHAR 00C9
ENCODING 201
SWIDTH 563 0
DWIDTH 18 0
BBX 0 0 0 0
BITMAP
ENDCHAR
STARTCHAR 00CA
ENCODING 202
SWIDTH 563 0
DWIDTH 18 0
BBX 0 0 0 0
BITMAP
ENDCHAR
STARTCHAR 00CB
ENCODING 203
SWIDTH 563 0
DWIDTH 18 0
BBX 0 0 0 0
BITMAP
ENDCHAR
STARTCHAR 00CC
ENCODING 204
SWIDTH 313 0
DWIDTH 10 0
BBX 0 0 0 0
BITMAP
ENDCHAR
STARTCHAR 00CD
ENCODING 205
SWIDTH 313 0
DWIDTH 10 0
BBX 0 0 0 0
BITMAP
ENDCHAR
STARTCHAR 00CE
ENCODING 206
SWIDTH 313 0
DWIDTH 10 0
BBX 0 0 0 0
BITMAP
ENDCHAR
STARTCHAR 00CF
ENCODING 207
SWIDTH 313 0
DWIDTH 10 0
BBX 0 0 0 0
BITMAP
ENDCHAR
STARTCHAR 00D0
ENCODING 208
SWIDTH 751 0
DWIDTH 24 0
BBX 0 0 0 0
BITMAP
ENDCHAR
STARTCHAR 00D1
ENCODING 209
SWIDTH 751 0
DWIDTH 24 0
BBX 0 0 0 0
BITMAP
ENDCHAR
STARTCHAR 00D2
ENCODING 210
SWIDTH 782 0
DWIDTH 25 0
BBX 0 0 0 0
BITMAP
ENDCHAR
STARTCHAR 00D3
ENCODING 211
SWIDTH 782 0
DWIDTH 25 0
BBX 0 0 0 0
BITMAP
ENDCHAR
STARTCHAR 00D4
ENCODING 212
SWIDTH 782 0
DWIDTH 25 0
BBX 0 0 0 0
BITMAP
ENDCHAR
STARTCHAR 00D5
ENCODING 213
SWIDTH 782 0
DWIDTH 25 0
BBX 0 0 0 0
BITMAP
ENDCHAR
STARTCHAR 00D6
ENCODING 214
SWIDTH 782 0
DWIDTH 25 0
BBX 0 0 0 0
BITMAP
ENDCHAR
STARTCHAR 00D7
ENCODING 215
SWIDTH 500 0
DWIDTH 16 0
BBX 0 0 0 0
BITMAP
ENDCHAR
STARTCHAR 00D8
ENCODING 216
SWIDTH 782 0
DWIDTH 25 0
BBX 0 0 0 0
BITMAP
ENDCHAR
STARTCHAR 00D9
ENCODING 217
SWIDTH 720 0
DWIDTH 23 0
BBX 0 0 0 0
BITMAP
ENDCHAR
STARTCHAR 00DA
ENCODING 218
SWIDTH 720 0
DWIDTH 23 0
BBX 0 0 0 0
BITMAP
ENDCHAR
STARTCHAR 00DB
ENCODING 219
SWIDTH 720 0
DWIDTH 23 0
BBX 0 0 0 0
BITMAP
ENDCHAR
STARTCHAR 00DC
ENCODING 220
SWIDTH 720 0
DWIDTH 23 0
BBX 0 0 0 0
BITMAP
ENDCHAR
STARTCHAR 00DD
ENCODING 221
SWIDTH 594 0
DWIDTH 19 0
BBX 0 0 0 0
BITMAP
ENDCHAR
STARTCHAR 00DE
ENCODING 222
SWIDTH 563 0
DWIDTH 18 0
BBX 0 0 0 0
BITMAP
ENDCHAR
STARTCHAR 00DF
ENCODING 223
SWIDTH 626 0
DWIDTH 20 0
BBX 0 0 0 0
BITMAP
ENDCHAR
STARTCHAR 00E0
ENCODING 224
SWIDTH 438 0
DWIDTH 14 0
BBX 0 0 0 0
BITMAP
ENDCHAR
STARTCHAR 00E1
ENCODING 225
SWIDTH 438 0
DWIDTH 14 0
BBX 0 0 0 0
BITMAP
ENDCHAR
STARTCHAR 00E2
ENCODING 226
SWIDTH 438 0
DWIDTH 14 0
BBX 0 0 0 0
BITMAP
ENDCHAR
STARTCHAR 00E3
ENCODING 227
SWIDTH 438 0
DWIDTH 14 0
BBX 0 0 0 0
BITMAP
ENDCHAR
STARTCHAR 00E4
ENCODING 228
SWIDTH 438 0
DWIDTH 14 0
BBX 0 0 0 0
BITMAP
ENDCHAR
STARTCHAR 00E5
ENCODING 229
SWIDTH 438 0
DWIDTH 14 0
BBX 0 0 0 0
BITMAP
ENDCHAR
STARTCHAR 00E6
ENCODING 230
SWIDTH 720 0
DWIDTH 23 0
BBX 0 0 0 0
BITMAP
ENDCHAR
STARTCHAR 00E7
ENCODING 231
SWIDTH 438 0
DWIDTH 14 0
BBX 0 0 0 0
BITMAP
ENDCHAR
STARTCHAR 00E8
ENCODING 232
SWIDTH 438 0
DWIDTH 14 0
BBX 0 0 0 0
BITMAP
ENDCHAR
STARTCHAR 00E9
ENCODING 233
SWIDTH 438 0
DWIDTH 14 0
BBX 0 0 0 0
BITMAP
ENDCHAR
STARTCHAR 00EA
ENCODING 234
SWIDTH 438 0
DWIDTH 14 0
BBX 0 0 0 0
BITMAP
ENDCHAR
STARTCHAR 00EB
ENCODING 235
SWIDTH 438 0
DWIDTH 14 0
BBX 0 0 0 0
BITMAP
ENDCHAR
STARTCHAR 00EC
ENCODING 236
SWIDTH 250 0
DWIDTH 8 0
BBX 0 0 0 0
BITMAP
ENDCHAR
STARTCHAR 00ED
ENCODING 237
SWIDTH 250 0
DWIDTH 8 0
BBX 0 0 0 0
BITMAP
ENDCHAR
STARTCHAR 00EE
ENCODING 238
SWIDTH 250 0
DWIDTH 8 0
BBX 0 0 0 0
BITMAP
ENDCHAR
STARTCHAR 00EF
ENCODING 239
SWIDTH 250 0
DWIDTH 8 0
BBX 0 0 0 0
BITMAP
ENDCHAR
STARTCHAR 00F0
ENCODING 240
SWIDTH 563 0
DWIDTH 18 0
BBX 0 0 0 0
BITMAP
ENDCHAR
STARTCHAR 00F1
ENCODING 241
SWIDTH 532 0
DWIDTH 17 0
BBX 0 0 0 0
BITMAP
ENDCHAR
STARTCHAR 00F2
ENCODING 242
SWIDTH 500 0
DWIDTH 16 0
BBX 0 0 0 0
BITMAP
ENDCHAR
STARTCHAR 00F3
ENCODING 243
SWIDTH 500 0
DWIDTH 16 0
BBX 0 0 0 0
BITMAP
ENDCHAR
STARTCHAR 00F4
ENCODING 244
SWIDTH 500 0
DWIDTH 16 0
BBX 0 0 0 0
BITMAP
ENDCHAR
STARTCHAR 00F5
ENCODING 245
SWIDTH 500 0
DWIDTH 16 0
BBX 0 0 0 0
BITMAP
ENDCHAR
STARTCHAR 00F6
ENCODING 246
SWIDTH 500 0
DWIDTH 16 0
BBX 0 0 0 0
BITMAP
ENDCHAR
STARTCHAR 00F7
ENCODING 247
SWIDTH 500 0
DWIDTH 16 0
BBX 0 0 0 0
BITMAP
ENDCHAR
STARTCHAR 00F8
ENCODING 248
SWIDTH 500 0
DWIDTH 16 0
BBX 0 0 0 0
BITMAP
ENDCHAR
STARTCHAR 00F9
ENCODING 249
SWIDTH 532 0
DWIDTH 17 0
BBX 0 0 0 0
BITMAP
ENDCHAR
STARTCHAR 00FA
ENCODING 250
SWIDTH 532 0
DWIDTH 17 0
BBX 0 0 0 0
BITMAP
ENDCHAR
STARTCHAR 00FB
ENCODING 251
SWIDTH 532 0
DWIDTH 17 0
BBX 0 0 0 0
BITMAP
ENDCHAR
STARTCHAR 00FC
ENCODING 252
SWIDTH 532 0
DWIDTH 17 0
BBX 0 0 0 0
BITMAP
ENDCHAR
STARTCHAR 00FD
ENCODING 253
SWIDTH 438 0
DWIDTH 14 0
BBX 0 0 0 0
BITMAP
ENDCHAR
STARTCHAR 00FE
ENCODING 254
SWIDTH 500 0
DWIDTH 16 0
BBX 0 0 0 0
BITMAP
ENDCHAR
STARTCHAR 00FF
ENCODING 255
SWIDTH 438 0
DWIDTH 14 0
BBX 0 0 0 0
BITMAP
ENDCHAR
STARTCHAR 0131
ENCODING 305
SWIDTH 250 0
DWIDTH 8 0
BBX 0 0 0 0
BITMAP
ENDCHAR
STARTCHAR 02C6
ENCODING 710
SWIDTH 500 0
DWIDTH 16 0
BBX 0 0 0 0
BITMAP
ENDCHAR
STARTCHAR 02C7
ENCODING 711
SWIDTH 500 0
DWIDTH 16 0
BBX 0 0 0 0
BITMAP
ENDCHAR
STARTCHAR 02C9
ENCODING 713
SWIDTH 500 0
DWIDTH 16 0
BBX 0 0 0 0
BITMAP
ENDCHAR
STARTCHAR 02D8
ENCODING 728
SWIDTH 500 0
DWIDTH 16 0
BBX 0 0 0 0
BITMAP
ENDCHAR
STARTCHAR 02D9
ENCODING 729
SWIDTH 500 0
DWIDTH 16 0
BBX 0 0 0 0
BITMAP
ENDCHAR
STARTCHAR 02DA
ENCODING 730
SWIDTH 500 0
DWIDTH 16 0
BBX 0 0 0 0
BITMAP
ENDCHAR
STARTCHAR 02DB
ENCODING 731
SWIDTH 500 0
DWIDTH 16 0
BBX 0 0 0 0
BITMAP
ENDCHAR
STARTCHAR 02DC
ENCODING 732
SWIDTH 500 0
DWIDTH 16 0
BBX 0 0 0 0
BITMAP
ENDCHAR
STARTCHAR 02DD
ENCODING 733
SWIDTH 500 0
DWIDTH 16 0
BBX 0 0 0 0
BITMAP
ENDCHAR
STARTCHAR 037E
ENCODING 894
SWIDTH 970 0
DWIDTH 31 0
BBX 31 31 0 -5
BITMAP
00018000
00018000
00018000
00018000
00018000
00018000
00018000
00018000
00018000
00018000
00018000
00018000
00018000
00018000
00018000
FFFFFFFE
FFFFFFFE
00018000
00018000
00018000
00018000
00018000
00018000
00018000
00018000
00018000
00018000
00018000
00018000
00018000
00018000
ENDCHAR
STARTCHAR 2013
ENCODING 8211
SWIDTH 532 0
DWIDTH 17 0
BBX 0 0 0 0
BITMAP
ENDCHAR
STARTCHAR 2014
ENCODING 8212
SWIDTH 1001 0
DWIDTH 32 0
BBX 0 0 0 0
BITMAP
ENDCHAR
STARTCHAR 2018
ENCODING 8216
SWIDTH 281 0
DWIDTH 9 0
BBX 0 0 0 0
BITMAP
ENDCHAR
STARTCHAR 2019
ENCODING 8217
SWIDTH 281 0
DWIDTH 9 0
BBX 0 0 0 0
BITMAP
ENDCHAR
STARTCHAR 201A
ENCODING 8218
SWIDTH 281 0
DWIDTH 9 0
BBX 0 0 0 0
BITMAP
ENDCHAR
STARTCHAR 201C
ENCODING 8220
SWIDTH 438 0
DWIDTH 14 0
BBX 0 0 0 0
BITMAP
ENDCHAR
STARTCHAR 201D
ENCODING 8221
SWIDTH 438 0
DWIDTH 14 0
BBX 0 0 0 0
BITMAP
ENDCHAR
STARTCHAR 201E
ENCODING 8222
SWIDTH 438 0
DWIDTH 14 0
BBX 0 0 0 0
BITMAP
ENDCHAR
STARTCHAR 2020
ENCODING 8224
SWIDTH 500 0
DWIDTH 16 0
BBX 0 0 0 0
BITMAP
ENDCHAR
STARTCHAR 2021
ENCODING 8225
SWIDTH 500 0
DWIDTH 16 0
BBX 0 0 0 0
BITMAP
ENDCHAR
STARTCHAR 2022
ENCODING 8226
SWIDTH 500 0
DWIDTH 16 0
BBX 0 0 0 0
BITMAP
ENDCHAR
STARTCHAR 2026
ENCODING 8230
SWIDTH 1001 0
DWIDTH 32 0
BBX 0 0 0 0
BITMAP
ENDCHAR
STARTCHAR 2039
ENCODING 8249
SWIDTH 313 0
DWIDTH 10 0
BBX 0 0 0 0
BITMAP
ENDCHAR
STARTCHAR 203A
ENCODING 8250
SWIDTH 313 0
DWIDTH 10 0
BBX 0 0 0 0
BITMAP
ENDCHAR
STARTCHAR 2044
ENCODING 8260
SWIDTH 156 0
DWIDTH 5 0
BBX 0 0 0 0
BITMAP
ENDCHAR
STARTCHAR 20A3
ENCODING 8355
SWIDTH 500 0
DWIDTH 16 0
BBX 0 0 0 0
BITMAP
ENDCHAR
STARTCHAR 20A4
ENCODING 8356
SWIDTH 500 0
DWIDTH 16 0
BBX 0 0 0 0
BITMAP
ENDCHAR
STARTCHAR 20A7
ENCODING 8359
SWIDTH 1001 0
DWIDTH 32 0
BBX 0 0 0 0
BITMAP
ENDCHAR
STARTCHAR 20AC
ENCODING 8364
SWIDTH 500 0
DWIDTH 16 0
BBX 0 0 0 0
BITMAP
ENDCHAR
STARTCHAR 2116
ENCODING 8470
SWIDTH 1095 0
DWIDTH 35 0
BBX 0 0 0 0
BITMAP
ENDCHAR
STARTCHAR 2122
ENCODING 8482
SWIDTH 720 0
DWIDTH 23 0
BBX 0 0 0 0
BITMAP
ENDCHAR
STARTCHAR 2202
ENCODING 8706
SWIDTH 500 0
DWIDTH 16 0
BBX 0 0 0 0
BITMAP
ENDCHAR
STARTCHAR 2206
ENCODING 8710
SWIDTH 532 0
DWIDTH 17 0
BBX 0 0 0 0
BITMAP
ENDCHAR
STARTCHAR 220F
ENCODING 8719
SWIDTH 751 0
DWIDTH 24 0
BBX 0 0 0 0
BITMAP
ENDCHAR
STARTCHAR 2211
ENCODING 8721
SWIDTH 594 0
DWIDTH 19 0
BBX 0 0 0 0
BITMAP
ENDCHAR
STARTCHAR 2212
ENCODING 8722
SWIDTH 500 0
DWIDTH 16 0
BBX 0 0 0 0
BITMAP
ENDCHAR
STARTCHAR 2215
ENCODING 8725
SWIDTH 156 0
DWIDTH 5 0
BBX 0 0 0 0
BITMAP
ENDCHAR
STARTCHAR 2219
ENCODING 8729
SWIDTH 250 0
DWIDTH 8 0
BBX 0 0 0 0
BITMAP
ENDCHAR
STARTCHAR 221A
ENCODING 8730
SWIDTH 500 0
DWIDTH 16 0
BBX 0 0 0 0
BITMAP
ENDCHAR
STARTCHAR 221E
ENCODING 8734
SWIDTH 500 0
DWIDTH 16 0
BBX 0 0 0 0
BITMAP
ENDCHAR
STARTCHAR 222B
ENCODING 8747
SWIDTH 313 0
DWIDTH 10 0
BBX 0 0 0 0
BITMAP
ENDCHAR
STARTCHAR 2248
ENCODING 8776
SWIDTH 500 0
DWIDTH 16 0
BBX 0 0 0 0
BITMAP
ENDCHAR
STARTCHAR 2264
ENCODING 8804
SWIDTH 500 0
DWIDTH 16 0
BBX 0 0 0 0
BITMAP
ENDCHAR
STARTCHAR 2265
ENCODING 8805
SWIDTH 500 0
DWIDTH 16 0
BBX 0 0 0 0
BITMAP
ENDCHAR
STARTCHAR F001
ENCODING 61441
SWIDTH 532 0
DWIDTH 17 0
BBX 0 0 0 0
BITMAP
ENDCHAR
STARTCHAR F002
ENCODING 61442
SWIDTH 532 0
DWIDTH 17 0
BBX 0 0 0 0
BITMAP
ENDCHAR
STARTCHAR FB01
ENCODING 64257
SWIDTH 532 0
DWIDTH 17 0
BBX 0 0 0 0
BITMAP
ENDCHAR
STARTCHAR FB02
ENCODING 64258
SWIDTH 532 0
DWIDTH 17 0
BBX 0 0 0 0
BITMAP
ENDCHAR
ENDFONT
